<svg xmlns="http://www.w3.org/2000/svg" viewBox="0 0 628 316" width="628" height="316" role="img" aria-label="Today in Sports">
<title>Today in Sports</title>
<g transform="translate(182.0,34)"><rect x="0.42" y="0.42" width="5.16" height="5.16" fill="#eef2f7"/><rect x="6.42" y="0.42" width="5.16" height="5.16" fill="#eef2f7"/><rect x="12.42" y="0.42" width="5.16" height="5.16" fill="#eef2f7"/><rect x="18.42" y="0.42" width="5.16" height="5.16" fill="#eef2f7"/><rect x="24.42" y="0.42" width="5.16" height="5.16" fill="#eef2f7"/><rect x="12.42" y="6.42" width="5.16" height="5.16" fill="#eef2f7"/><rect x="12.42" y="12.42" width="5.16" height="5.16" fill="#eef2f7"/><rect x="12.42" y="18.42" width="5.16" height="5.16" fill="#eef2f7"/><rect x="12.42" y="24.42" width="5.16" height="5.16" fill="#eef2f7"/><rect x="12.42" y="30.42" width="5.16" height="5.16" fill="#eef2f7"/><rect x="12.42" y="36.42" width="5.16" height="5.16" fill="#eef2f7"/><rect x="42.42" y="0.42" width="5.16" height="5.16" fill="#eef2f7"/><rect x="48.42" y="0.42" width="5.16" height="5.16" fill="#eef2f7"/><rect x="54.42" y="0.42" width="5.16" height="5.16" fill="#eef2f7"/><rect x="36.42" y="6.42" width="5.16" height="5.16" fill="#eef2f7"/><rect x="60.42" y="6.42" width="5.16" height="5.16" fill="#eef2f7"/><rect x="36.42" y="12.42" width="5.16" height="5.16" fill="#eef2f7"/><rect x="60.42" y="12.42" width="5.16" height="5.16" fill="#eef2f7"/><rect x="36.42" y="18.42" width="5.16" height="5.16" fill="#eef2f7"/><rect x="60.42" y="18.42" width="5.16" height="5.16" fill="#eef2f7"/><rect x="36.42" y="24.42" width="5.16" height="5.16" fill="#eef2f7"/><rect x="60.42" y="24.42" width="5.16" height="5.16" fill="#eef2f7"/><rect x="36.42" y="30.42" width="5.16" height="5.16" fill="#eef2f7"/><rect x="60.42" y="30.42" width="5.16" height="5.16" fill="#eef2f7"/><rect x="42.42" y="36.42" width="5.16" height="5.16" fill="#eef2f7"/><rect x="48.42" y="36.42" width="5.16" height="5.16" fill="#eef2f7"/><rect x="54.42" y="36.42" width="5.16" height="5.16" fill="#eef2f7"/><rect x="72.42" y="0.42" width="5.16" height="5.16" fill="#eef2f7"/><rect x="78.42" y="0.42" width="5.16" height="5.16" fill="#eef2f7"/><rect x="84.42" y="0.42" width="5.16" height="5.16" fill="#eef2f7"/><rect x="90.42" y="0.42" width="5.16" height="5.16" fill="#eef2f7"/><rect x="72.42" y="6.42" width="5.16" height="5.16" fill="#eef2f7"/><rect x="96.42" y="6.42" width="5.16" height="5.16" fill="#eef2f7"/><rect x="72.42" y="12.42" width="5.16" height="5.16" fill="#eef2f7"/><rect x="96.42" y="12.42" width="5.16" height="5.16" fill="#eef2f7"/><rect x="72.42" y="18.42" width="5.16" height="5.16" fill="#eef2f7"/><rect x="96.42" y="18.42" width="5.16" height="5.16" fill="#eef2f7"/><rect x="72.42" y="24.42" width="5.16" height="5.16" fill="#eef2f7"/><rect x="96.42" y="24.42" width="5.16" height="5.16" fill="#eef2f7"/><rect x="72.42" y="30.42" width="5.16" height="5.16" fill="#eef2f7"/><rect x="96.42" y="30.42" width="5.16" height="5.16" fill="#eef2f7"/><rect x="72.42" y="36.42" width="5.16" height="5.16" fill="#eef2f7"/><rect x="78.42" y="36.42" width="5.16" height="5.16" fill="#eef2f7"/><rect x="84.42" y="36.42" width="5.16" height="5.16" fill="#eef2f7"/><rect x="90.42" y="36.42" width="5.16" height="5.16" fill="#eef2f7"/><rect x="114.42" y="0.42" width="5.16" height="5.16" fill="#eef2f7"/><rect x="120.42" y="0.42" width="5.16" height="5.16" fill="#eef2f7"/><rect x="126.42" y="0.42" width="5.16" height="5.16" fill="#eef2f7"/><rect x="108.42" y="6.42" width="5.16" height="5.16" fill="#eef2f7"/><rect x="132.42" y="6.42" width="5.16" height="5.16" fill="#eef2f7"/><rect x="108.42" y="12.42" width="5.16" height="5.16" fill="#eef2f7"/><rect x="132.42" y="12.42" width="5.16" height="5.16" fill="#eef2f7"/><rect x="108.42" y="18.42" width="5.16" height="5.16" fill="#eef2f7"/><rect x="114.42" y="18.42" width="5.16" height="5.16" fill="#eef2f7"/><rect x="120.42" y="18.42" width="5.16" height="5.16" fill="#eef2f7"/><rect x="126.42" y="18.42" width="5.16" height="5.16" fill="#eef2f7"/><rect x="132.42" y="18.42" width="5.16" height="5.16" fill="#eef2f7"/><rect x="108.42" y="24.42" width="5.16" height="5.16" fill="#eef2f7"/><rect x="132.42" y="24.42" width="5.16" height="5.16" fill="#eef2f7"/><rect x="108.42" y="30.42" width="5.16" height="5.16" fill="#eef2f7"/><rect x="132.42" y="30.42" width="5.16" height="5.16" fill="#eef2f7"/><rect x="108.42" y="36.42" width="5.16" height="5.16" fill="#eef2f7"/><rect x="132.42" y="36.42" width="5.16" height="5.16" fill="#eef2f7"/><rect x="144.42" y="0.42" width="5.16" height="5.16" fill="#eef2f7"/><rect x="168.42" y="0.42" width="5.16" height="5.16" fill="#eef2f7"/><rect x="144.42" y="6.42" width="5.16" height="5.16" fill="#eef2f7"/><rect x="168.42" y="6.42" width="5.16" height="5.16" fill="#eef2f7"/><rect x="150.42" y="12.42" width="5.16" height="5.16" fill="#eef2f7"/><rect x="162.42" y="12.42" width="5.16" height="5.16" fill="#eef2f7"/><rect x="156.42" y="18.42" width="5.16" height="5.16" fill="#eef2f7"/><rect x="156.42" y="24.42" width="5.16" height="5.16" fill="#eef2f7"/><rect x="156.42" y="30.42" width="5.16" height="5.16" fill="#eef2f7"/><rect x="156.42" y="36.42" width="5.16" height="5.16" fill="#eef2f7"/><rect x="198.42" y="0.42" width="5.16" height="5.16" fill="#eef2f7"/><rect x="204.42" y="0.42" width="5.16" height="5.16" fill="#eef2f7"/><rect x="210.42" y="0.42" width="5.16" height="5.16" fill="#eef2f7"/><rect x="216.42" y="0.42" width="5.16" height="5.16" fill="#eef2f7"/><rect x="222.42" y="0.42" width="5.16" height="5.16" fill="#eef2f7"/><rect x="210.42" y="6.42" width="5.16" height="5.16" fill="#eef2f7"/><rect x="210.42" y="12.42" width="5.16" height="5.16" fill="#eef2f7"/><rect x="210.42" y="18.42" width="5.16" height="5.16" fill="#eef2f7"/><rect x="210.42" y="24.42" width="5.16" height="5.16" fill="#eef2f7"/><rect x="210.42" y="30.42" width="5.16" height="5.16" fill="#eef2f7"/><rect x="198.42" y="36.42" width="5.16" height="5.16" fill="#eef2f7"/><rect x="204.42" y="36.42" width="5.16" height="5.16" fill="#eef2f7"/><rect x="210.42" y="36.42" width="5.16" height="5.16" fill="#eef2f7"/><rect x="216.42" y="36.42" width="5.16" height="5.16" fill="#eef2f7"/><rect x="222.42" y="36.42" width="5.16" height="5.16" fill="#eef2f7"/><rect x="234.42" y="0.42" width="5.16" height="5.16" fill="#eef2f7"/><rect x="258.42" y="0.42" width="5.16" height="5.16" fill="#eef2f7"/><rect x="234.42" y="6.42" width="5.16" height="5.16" fill="#eef2f7"/><rect x="240.42" y="6.42" width="5.16" height="5.16" fill="#eef2f7"/><rect x="258.42" y="6.42" width="5.16" height="5.16" fill="#eef2f7"/><rect x="234.42" y="12.42" width="5.16" height="5.16" fill="#eef2f7"/><rect x="246.42" y="12.42" width="5.16" height="5.16" fill="#eef2f7"/><rect x="258.42" y="12.42" width="5.16" height="5.16" fill="#eef2f7"/><rect x="234.42" y="18.42" width="5.16" height="5.16" fill="#eef2f7"/><rect x="246.42" y="18.42" width="5.16" height="5.16" fill="#eef2f7"/><rect x="258.42" y="18.42" width="5.16" height="5.16" fill="#eef2f7"/><rect x="234.42" y="24.42" width="5.16" height="5.16" fill="#eef2f7"/><rect x="252.42" y="24.42" width="5.16" height="5.16" fill="#eef2f7"/><rect x="258.42" y="24.42" width="5.16" height="5.16" fill="#eef2f7"/><rect x="234.42" y="30.42" width="5.16" height="5.16" fill="#eef2f7"/><rect x="258.42" y="30.42" width="5.16" height="5.16" fill="#eef2f7"/><rect x="234.42" y="36.42" width="5.16" height="5.16" fill="#eef2f7"/><rect x="258.42" y="36.42" width="5.16" height="5.16" fill="#eef2f7"/></g>
<g transform="translate(34.0,98)"><circle cx="24.00" cy="8.00" r="6.88" fill="#f5a524"/><circle cx="40.00" cy="8.00" r="6.88" fill="#f5a524"/><circle cx="56.00" cy="8.00" r="6.88" fill="#f5a524"/><circle cx="72.00" cy="8.00" r="6.88" fill="#f5a524"/><circle cx="8.00" cy="24.00" r="6.88" fill="#f5a524"/><circle cx="8.00" cy="40.00" r="6.88" fill="#f5a524"/><circle cx="24.00" cy="56.00" r="6.88" fill="#f5a524"/><circle cx="40.00" cy="56.00" r="6.88" fill="#f5a524"/><circle cx="56.00" cy="56.00" r="6.88" fill="#f5a524"/><circle cx="72.00" cy="72.00" r="6.88" fill="#f5a524"/><circle cx="72.00" cy="88.00" r="6.88" fill="#f5a524"/><circle cx="8.00" cy="104.00" r="6.88" fill="#f5a524"/><circle cx="24.00" cy="104.00" r="6.88" fill="#f5a524"/><circle cx="40.00" cy="104.00" r="6.88" fill="#f5a524"/><circle cx="56.00" cy="104.00" r="6.88" fill="#f5a524"/><circle cx="104.00" cy="8.00" r="6.88" fill="#f5a524"/><circle cx="120.00" cy="8.00" r="6.88" fill="#f5a524"/><circle cx="136.00" cy="8.00" r="6.88" fill="#f5a524"/><circle cx="152.00" cy="8.00" r="6.88" fill="#f5a524"/><circle cx="104.00" cy="24.00" r="6.88" fill="#f5a524"/><circle cx="168.00" cy="24.00" r="6.88" fill="#f5a524"/><circle cx="104.00" cy="40.00" r="6.88" fill="#f5a524"/><circle cx="168.00" cy="40.00" r="6.88" fill="#f5a524"/><circle cx="104.00" cy="56.00" r="6.88" fill="#f5a524"/><circle cx="120.00" cy="56.00" r="6.88" fill="#f5a524"/><circle cx="136.00" cy="56.00" r="6.88" fill="#f5a524"/><circle cx="152.00" cy="56.00" r="6.88" fill="#f5a524"/><circle cx="104.00" cy="72.00" r="6.88" fill="#f5a524"/><circle cx="104.00" cy="88.00" r="6.88" fill="#f5a524"/><circle cx="104.00" cy="104.00" r="6.88" fill="#f5a524"/><circle cx="216.00" cy="8.00" r="6.88" fill="#f5a524"/><circle cx="232.00" cy="8.00" r="6.88" fill="#f5a524"/><circle cx="248.00" cy="8.00" r="6.88" fill="#f5a524"/><circle cx="200.00" cy="24.00" r="6.88" fill="#f5a524"/><circle cx="264.00" cy="24.00" r="6.88" fill="#f5a524"/><circle cx="200.00" cy="40.00" r="6.88" fill="#f5a524"/><circle cx="264.00" cy="40.00" r="6.88" fill="#f5a524"/><circle cx="200.00" cy="56.00" r="6.88" fill="#f5a524"/><circle cx="264.00" cy="56.00" r="6.88" fill="#f5a524"/><circle cx="200.00" cy="72.00" r="6.88" fill="#f5a524"/><circle cx="264.00" cy="72.00" r="6.88" fill="#f5a524"/><circle cx="200.00" cy="88.00" r="6.88" fill="#f5a524"/><circle cx="264.00" cy="88.00" r="6.88" fill="#f5a524"/><circle cx="216.00" cy="104.00" r="6.88" fill="#f5a524"/><circle cx="232.00" cy="104.00" r="6.88" fill="#f5a524"/><circle cx="248.00" cy="104.00" r="6.88" fill="#f5a524"/><circle cx="296.00" cy="8.00" r="6.88" fill="#f5a524"/><circle cx="312.00" cy="8.00" r="6.88" fill="#f5a524"/><circle cx="328.00" cy="8.00" r="6.88" fill="#f5a524"/><circle cx="344.00" cy="8.00" r="6.88" fill="#f5a524"/><circle cx="296.00" cy="24.00" r="6.88" fill="#f5a524"/><circle cx="360.00" cy="24.00" r="6.88" fill="#f5a524"/><circle cx="296.00" cy="40.00" r="6.88" fill="#f5a524"/><circle cx="360.00" cy="40.00" r="6.88" fill="#f5a524"/><circle cx="296.00" cy="56.00" r="6.88" fill="#f5a524"/><circle cx="312.00" cy="56.00" r="6.88" fill="#f5a524"/><circle cx="328.00" cy="56.00" r="6.88" fill="#f5a524"/><circle cx="344.00" cy="56.00" r="6.88" fill="#f5a524"/><circle cx="296.00" cy="72.00" r="6.88" fill="#f5a524"/><circle cx="328.00" cy="72.00" r="6.88" fill="#f5a524"/><circle cx="296.00" cy="88.00" r="6.88" fill="#f5a524"/><circle cx="344.00" cy="88.00" r="6.88" fill="#f5a524"/><circle cx="296.00" cy="104.00" r="6.88" fill="#f5a524"/><circle cx="360.00" cy="104.00" r="6.88" fill="#f5a524"/><circle cx="392.00" cy="8.00" r="6.88" fill="#f5a524"/><circle cx="408.00" cy="8.00" r="6.88" fill="#f5a524"/><circle cx="424.00" cy="8.00" r="6.88" fill="#f5a524"/><circle cx="440.00" cy="8.00" r="6.88" fill="#f5a524"/><circle cx="456.00" cy="8.00" r="6.88" fill="#f5a524"/><circle cx="424.00" cy="24.00" r="6.88" fill="#f5a524"/><circle cx="424.00" cy="40.00" r="6.88" fill="#f5a524"/><circle cx="424.00" cy="56.00" r="6.88" fill="#f5a524"/><circle cx="424.00" cy="72.00" r="6.88" fill="#f5a524"/><circle cx="424.00" cy="88.00" r="6.88" fill="#f5a524"/><circle cx="424.00" cy="104.00" r="6.88" fill="#f5a524"/><circle cx="504.00" cy="8.00" r="6.88" fill="#f5a524"/><circle cx="520.00" cy="8.00" r="6.88" fill="#f5a524"/><circle cx="536.00" cy="8.00" r="6.88" fill="#f5a524"/><circle cx="552.00" cy="8.00" r="6.88" fill="#f5a524"/><circle cx="488.00" cy="24.00" r="6.88" fill="#f5a524"/><circle cx="488.00" cy="40.00" r="6.88" fill="#f5a524"/><circle cx="504.00" cy="56.00" r="6.88" fill="#f5a524"/><circle cx="520.00" cy="56.00" r="6.88" fill="#f5a524"/><circle cx="536.00" cy="56.00" r="6.88" fill="#f5a524"/><circle cx="552.00" cy="72.00" r="6.88" fill="#f5a524"/><circle cx="552.00" cy="88.00" r="6.88" fill="#f5a524"/><circle cx="488.00" cy="104.00" r="6.88" fill="#f5a524"/><circle cx="504.00" cy="104.00" r="6.88" fill="#f5a524"/><circle cx="520.00" cy="104.00" r="6.88" fill="#f5a524"/><circle cx="536.00" cy="104.00" r="6.88" fill="#f5a524"/></g>
<rect x="50.0" y="227" width="528" height="46" rx="23.0" fill="#d6212f"/>
<g transform="translate(70.0,236)"><rect x="0.28" y="0.28" width="3.44" height="3.44" fill="#eef2f7"/><rect x="4.28" y="0.28" width="3.44" height="3.44" fill="#eef2f7"/><rect x="8.28" y="0.28" width="3.44" height="3.44" fill="#eef2f7"/><rect x="12.28" y="0.28" width="3.44" height="3.44" fill="#eef2f7"/><rect x="16.28" y="0.28" width="3.44" height="3.44" fill="#eef2f7"/><rect x="0.28" y="4.28" width="3.44" height="3.44" fill="#eef2f7"/><rect x="0.28" y="8.28" width="3.44" height="3.44" fill="#eef2f7"/><rect x="0.28" y="12.28" width="3.44" height="3.44" fill="#eef2f7"/><rect x="4.28" y="12.28" width="3.44" height="3.44" fill="#eef2f7"/><rect x="8.28" y="12.28" width="3.44" height="3.44" fill="#eef2f7"/><rect x="12.28" y="12.28" width="3.44" height="3.44" fill="#eef2f7"/><rect x="16.28" y="16.28" width="3.44" height="3.44" fill="#eef2f7"/><rect x="0.28" y="20.28" width="3.44" height="3.44" fill="#eef2f7"/><rect x="16.28" y="20.28" width="3.44" height="3.44" fill="#eef2f7"/><rect x="4.28" y="24.28" width="3.44" height="3.44" fill="#eef2f7"/><rect x="8.28" y="24.28" width="3.44" height="3.44" fill="#eef2f7"/><rect x="12.28" y="24.28" width="3.44" height="3.44" fill="#eef2f7"/><rect x="40.28" y="0.28" width="3.44" height="3.44" fill="#eef2f7"/><rect x="44.28" y="0.28" width="3.44" height="3.44" fill="#eef2f7"/><rect x="48.28" y="0.28" width="3.44" height="3.44" fill="#eef2f7"/><rect x="36.28" y="4.28" width="3.44" height="3.44" fill="#eef2f7"/><rect x="52.28" y="4.28" width="3.44" height="3.44" fill="#eef2f7"/><rect x="36.28" y="8.28" width="3.44" height="3.44" fill="#eef2f7"/><rect x="52.28" y="8.28" width="3.44" height="3.44" fill="#eef2f7"/><rect x="36.28" y="12.28" width="3.44" height="3.44" fill="#eef2f7"/><rect x="52.28" y="12.28" width="3.44" height="3.44" fill="#eef2f7"/><rect x="36.28" y="16.28" width="3.44" height="3.44" fill="#eef2f7"/><rect x="44.28" y="16.28" width="3.44" height="3.44" fill="#eef2f7"/><rect x="52.28" y="16.28" width="3.44" height="3.44" fill="#eef2f7"/><rect x="36.28" y="20.28" width="3.44" height="3.44" fill="#eef2f7"/><rect x="48.28" y="20.28" width="3.44" height="3.44" fill="#eef2f7"/><rect x="40.28" y="24.28" width="3.44" height="3.44" fill="#eef2f7"/><rect x="44.28" y="24.28" width="3.44" height="3.44" fill="#eef2f7"/><rect x="52.28" y="24.28" width="3.44" height="3.44" fill="#eef2f7"/><rect x="60.28" y="0.28" width="3.44" height="3.44" fill="#eef2f7"/><rect x="76.28" y="0.28" width="3.44" height="3.44" fill="#eef2f7"/><rect x="60.28" y="4.28" width="3.44" height="3.44" fill="#eef2f7"/><rect x="76.28" y="4.28" width="3.44" height="3.44" fill="#eef2f7"/><rect x="60.28" y="8.28" width="3.44" height="3.44" fill="#eef2f7"/><rect x="76.28" y="8.28" width="3.44" height="3.44" fill="#eef2f7"/><rect x="60.28" y="12.28" width="3.44" height="3.44" fill="#eef2f7"/><rect x="76.28" y="12.28" width="3.44" height="3.44" fill="#eef2f7"/><rect x="60.28" y="16.28" width="3.44" height="3.44" fill="#eef2f7"/><rect x="76.28" y="16.28" width="3.44" height="3.44" fill="#eef2f7"/><rect x="60.28" y="20.28" width="3.44" height="3.44" fill="#eef2f7"/><rect x="76.28" y="20.28" width="3.44" height="3.44" fill="#eef2f7"/><rect x="64.28" y="24.28" width="3.44" height="3.44" fill="#eef2f7"/><rect x="68.28" y="24.28" width="3.44" height="3.44" fill="#eef2f7"/><rect x="72.28" y="24.28" width="3.44" height="3.44" fill="#eef2f7"/><rect x="84.28" y="0.28" width="3.44" height="3.44" fill="#eef2f7"/><rect x="88.28" y="0.28" width="3.44" height="3.44" fill="#eef2f7"/><rect x="92.28" y="0.28" width="3.44" height="3.44" fill="#eef2f7"/><rect x="96.28" y="0.28" width="3.44" height="3.44" fill="#eef2f7"/><rect x="100.28" y="0.28" width="3.44" height="3.44" fill="#eef2f7"/><rect x="84.28" y="4.28" width="3.44" height="3.44" fill="#eef2f7"/><rect x="84.28" y="8.28" width="3.44" height="3.44" fill="#eef2f7"/><rect x="84.28" y="12.28" width="3.44" height="3.44" fill="#eef2f7"/><rect x="88.28" y="12.28" width="3.44" height="3.44" fill="#eef2f7"/><rect x="92.28" y="12.28" width="3.44" height="3.44" fill="#eef2f7"/><rect x="96.28" y="12.28" width="3.44" height="3.44" fill="#eef2f7"/><rect x="84.28" y="16.28" width="3.44" height="3.44" fill="#eef2f7"/><rect x="84.28" y="20.28" width="3.44" height="3.44" fill="#eef2f7"/><rect x="84.28" y="24.28" width="3.44" height="3.44" fill="#eef2f7"/><rect x="88.28" y="24.28" width="3.44" height="3.44" fill="#eef2f7"/><rect x="92.28" y="24.28" width="3.44" height="3.44" fill="#eef2f7"/><rect x="96.28" y="24.28" width="3.44" height="3.44" fill="#eef2f7"/><rect x="100.28" y="24.28" width="3.44" height="3.44" fill="#eef2f7"/><rect x="112.28" y="0.28" width="3.44" height="3.44" fill="#eef2f7"/><rect x="116.28" y="0.28" width="3.44" height="3.44" fill="#eef2f7"/><rect x="120.28" y="0.28" width="3.44" height="3.44" fill="#eef2f7"/><rect x="124.28" y="0.28" width="3.44" height="3.44" fill="#eef2f7"/><rect x="108.28" y="4.28" width="3.44" height="3.44" fill="#eef2f7"/><rect x="108.28" y="8.28" width="3.44" height="3.44" fill="#eef2f7"/><rect x="112.28" y="12.28" width="3.44" height="3.44" fill="#eef2f7"/><rect x="116.28" y="12.28" width="3.44" height="3.44" fill="#eef2f7"/><rect x="120.28" y="12.28" width="3.44" height="3.44" fill="#eef2f7"/><rect x="124.28" y="16.28" width="3.44" height="3.44" fill="#eef2f7"/><rect x="124.28" y="20.28" width="3.44" height="3.44" fill="#eef2f7"/><rect x="108.28" y="24.28" width="3.44" height="3.44" fill="#eef2f7"/><rect x="112.28" y="24.28" width="3.44" height="3.44" fill="#eef2f7"/><rect x="116.28" y="24.28" width="3.44" height="3.44" fill="#eef2f7"/><rect x="120.28" y="24.28" width="3.44" height="3.44" fill="#eef2f7"/><rect x="132.28" y="0.28" width="3.44" height="3.44" fill="#eef2f7"/><rect x="136.28" y="0.28" width="3.44" height="3.44" fill="#eef2f7"/><rect x="140.28" y="0.28" width="3.44" height="3.44" fill="#eef2f7"/><rect x="144.28" y="0.28" width="3.44" height="3.44" fill="#eef2f7"/><rect x="148.28" y="0.28" width="3.44" height="3.44" fill="#eef2f7"/><rect x="140.28" y="4.28" width="3.44" height="3.44" fill="#eef2f7"/><rect x="140.28" y="8.28" width="3.44" height="3.44" fill="#eef2f7"/><rect x="140.28" y="12.28" width="3.44" height="3.44" fill="#eef2f7"/><rect x="140.28" y="16.28" width="3.44" height="3.44" fill="#eef2f7"/><rect x="140.28" y="20.28" width="3.44" height="3.44" fill="#eef2f7"/><rect x="140.28" y="24.28" width="3.44" height="3.44" fill="#eef2f7"/><rect x="156.28" y="0.28" width="3.44" height="3.44" fill="#eef2f7"/><rect x="160.28" y="0.28" width="3.44" height="3.44" fill="#eef2f7"/><rect x="164.28" y="0.28" width="3.44" height="3.44" fill="#eef2f7"/><rect x="168.28" y="0.28" width="3.44" height="3.44" fill="#eef2f7"/><rect x="172.28" y="0.28" width="3.44" height="3.44" fill="#eef2f7"/><rect x="164.28" y="4.28" width="3.44" height="3.44" fill="#eef2f7"/><rect x="164.28" y="8.28" width="3.44" height="3.44" fill="#eef2f7"/><rect x="164.28" y="12.28" width="3.44" height="3.44" fill="#eef2f7"/><rect x="164.28" y="16.28" width="3.44" height="3.44" fill="#eef2f7"/><rect x="164.28" y="20.28" width="3.44" height="3.44" fill="#eef2f7"/><rect x="156.28" y="24.28" width="3.44" height="3.44" fill="#eef2f7"/><rect x="160.28" y="24.28" width="3.44" height="3.44" fill="#eef2f7"/><rect x="164.28" y="24.28" width="3.44" height="3.44" fill="#eef2f7"/><rect x="168.28" y="24.28" width="3.44" height="3.44" fill="#eef2f7"/><rect x="172.28" y="24.28" width="3.44" height="3.44" fill="#eef2f7"/><rect x="184.28" y="0.28" width="3.44" height="3.44" fill="#eef2f7"/><rect x="188.28" y="0.28" width="3.44" height="3.44" fill="#eef2f7"/><rect x="192.28" y="0.28" width="3.44" height="3.44" fill="#eef2f7"/><rect x="180.28" y="4.28" width="3.44" height="3.44" fill="#eef2f7"/><rect x="196.28" y="4.28" width="3.44" height="3.44" fill="#eef2f7"/><rect x="180.28" y="8.28" width="3.44" height="3.44" fill="#eef2f7"/><rect x="196.28" y="8.28" width="3.44" height="3.44" fill="#eef2f7"/><rect x="180.28" y="12.28" width="3.44" height="3.44" fill="#eef2f7"/><rect x="196.28" y="12.28" width="3.44" height="3.44" fill="#eef2f7"/><rect x="180.28" y="16.28" width="3.44" height="3.44" fill="#eef2f7"/><rect x="196.28" y="16.28" width="3.44" height="3.44" fill="#eef2f7"/><rect x="180.28" y="20.28" width="3.44" height="3.44" fill="#eef2f7"/><rect x="196.28" y="20.28" width="3.44" height="3.44" fill="#eef2f7"/><rect x="184.28" y="24.28" width="3.44" height="3.44" fill="#eef2f7"/><rect x="188.28" y="24.28" width="3.44" height="3.44" fill="#eef2f7"/><rect x="192.28" y="24.28" width="3.44" height="3.44" fill="#eef2f7"/><rect x="204.28" y="0.28" width="3.44" height="3.44" fill="#eef2f7"/><rect x="220.28" y="0.28" width="3.44" height="3.44" fill="#eef2f7"/><rect x="204.28" y="4.28" width="3.44" height="3.44" fill="#eef2f7"/><rect x="208.28" y="4.28" width="3.44" height="3.44" fill="#eef2f7"/><rect x="220.28" y="4.28" width="3.44" height="3.44" fill="#eef2f7"/><rect x="204.28" y="8.28" width="3.44" height="3.44" fill="#eef2f7"/><rect x="212.28" y="8.28" width="3.44" height="3.44" fill="#eef2f7"/><rect x="220.28" y="8.28" width="3.44" height="3.44" fill="#eef2f7"/><rect x="204.28" y="12.28" width="3.44" height="3.44" fill="#eef2f7"/><rect x="212.28" y="12.28" width="3.44" height="3.44" fill="#eef2f7"/><rect x="220.28" y="12.28" width="3.44" height="3.44" fill="#eef2f7"/><rect x="204.28" y="16.28" width="3.44" height="3.44" fill="#eef2f7"/><rect x="216.28" y="16.28" width="3.44" height="3.44" fill="#eef2f7"/><rect x="220.28" y="16.28" width="3.44" height="3.44" fill="#eef2f7"/><rect x="204.28" y="20.28" width="3.44" height="3.44" fill="#eef2f7"/><rect x="220.28" y="20.28" width="3.44" height="3.44" fill="#eef2f7"/><rect x="204.28" y="24.28" width="3.44" height="3.44" fill="#eef2f7"/><rect x="220.28" y="24.28" width="3.44" height="3.44" fill="#eef2f7"/><rect x="232.28" y="0.28" width="3.44" height="3.44" fill="#eef2f7"/><rect x="236.28" y="0.28" width="3.44" height="3.44" fill="#eef2f7"/><rect x="240.28" y="0.28" width="3.44" height="3.44" fill="#eef2f7"/><rect x="244.28" y="0.28" width="3.44" height="3.44" fill="#eef2f7"/><rect x="228.28" y="4.28" width="3.44" height="3.44" fill="#eef2f7"/><rect x="228.28" y="8.28" width="3.44" height="3.44" fill="#eef2f7"/><rect x="232.28" y="12.28" width="3.44" height="3.44" fill="#eef2f7"/><rect x="236.28" y="12.28" width="3.44" height="3.44" fill="#eef2f7"/><rect x="240.28" y="12.28" width="3.44" height="3.44" fill="#eef2f7"/><rect x="244.28" y="16.28" width="3.44" height="3.44" fill="#eef2f7"/><rect x="244.28" y="20.28" width="3.44" height="3.44" fill="#eef2f7"/><rect x="228.28" y="24.28" width="3.44" height="3.44" fill="#eef2f7"/><rect x="232.28" y="24.28" width="3.44" height="3.44" fill="#eef2f7"/><rect x="236.28" y="24.28" width="3.44" height="3.44" fill="#eef2f7"/><rect x="240.28" y="24.28" width="3.44" height="3.44" fill="#eef2f7"/><rect x="252.28" y="20.28" width="3.44" height="3.44" fill="#eef2f7"/><rect x="256.28" y="20.28" width="3.44" height="3.44" fill="#eef2f7"/><rect x="252.28" y="24.28" width="3.44" height="3.44" fill="#eef2f7"/><rect x="256.28" y="24.28" width="3.44" height="3.44" fill="#eef2f7"/><rect x="276.28" y="0.28" width="3.44" height="3.44" fill="#eef2f7"/><rect x="280.28" y="0.28" width="3.44" height="3.44" fill="#eef2f7"/><rect x="284.28" y="0.28" width="3.44" height="3.44" fill="#eef2f7"/><rect x="288.28" y="0.28" width="3.44" height="3.44" fill="#eef2f7"/><rect x="292.28" y="0.28" width="3.44" height="3.44" fill="#eef2f7"/><rect x="276.28" y="4.28" width="3.44" height="3.44" fill="#eef2f7"/><rect x="276.28" y="8.28" width="3.44" height="3.44" fill="#eef2f7"/><rect x="276.28" y="12.28" width="3.44" height="3.44" fill="#eef2f7"/><rect x="280.28" y="12.28" width="3.44" height="3.44" fill="#eef2f7"/><rect x="284.28" y="12.28" width="3.44" height="3.44" fill="#eef2f7"/><rect x="288.28" y="12.28" width="3.44" height="3.44" fill="#eef2f7"/><rect x="276.28" y="16.28" width="3.44" height="3.44" fill="#eef2f7"/><rect x="276.28" y="20.28" width="3.44" height="3.44" fill="#eef2f7"/><rect x="276.28" y="24.28" width="3.44" height="3.44" fill="#eef2f7"/><rect x="280.28" y="24.28" width="3.44" height="3.44" fill="#eef2f7"/><rect x="284.28" y="24.28" width="3.44" height="3.44" fill="#eef2f7"/><rect x="288.28" y="24.28" width="3.44" height="3.44" fill="#eef2f7"/><rect x="292.28" y="24.28" width="3.44" height="3.44" fill="#eef2f7"/><rect x="300.28" y="0.28" width="3.44" height="3.44" fill="#eef2f7"/><rect x="316.28" y="0.28" width="3.44" height="3.44" fill="#eef2f7"/><rect x="300.28" y="4.28" width="3.44" height="3.44" fill="#eef2f7"/><rect x="316.28" y="4.28" width="3.44" height="3.44" fill="#eef2f7"/><rect x="300.28" y="8.28" width="3.44" height="3.44" fill="#eef2f7"/><rect x="316.28" y="8.28" width="3.44" height="3.44" fill="#eef2f7"/><rect x="300.28" y="12.28" width="3.44" height="3.44" fill="#eef2f7"/><rect x="316.28" y="12.28" width="3.44" height="3.44" fill="#eef2f7"/><rect x="300.28" y="16.28" width="3.44" height="3.44" fill="#eef2f7"/><rect x="316.28" y="16.28" width="3.44" height="3.44" fill="#eef2f7"/><rect x="304.28" y="20.28" width="3.44" height="3.44" fill="#eef2f7"/><rect x="312.28" y="20.28" width="3.44" height="3.44" fill="#eef2f7"/><rect x="308.28" y="24.28" width="3.44" height="3.44" fill="#eef2f7"/><rect x="324.28" y="0.28" width="3.44" height="3.44" fill="#eef2f7"/><rect x="328.28" y="0.28" width="3.44" height="3.44" fill="#eef2f7"/><rect x="332.28" y="0.28" width="3.44" height="3.44" fill="#eef2f7"/><rect x="336.28" y="0.28" width="3.44" height="3.44" fill="#eef2f7"/><rect x="340.28" y="0.28" width="3.44" height="3.44" fill="#eef2f7"/><rect x="324.28" y="4.28" width="3.44" height="3.44" fill="#eef2f7"/><rect x="324.28" y="8.28" width="3.44" height="3.44" fill="#eef2f7"/><rect x="324.28" y="12.28" width="3.44" height="3.44" fill="#eef2f7"/><rect x="328.28" y="12.28" width="3.44" height="3.44" fill="#eef2f7"/><rect x="332.28" y="12.28" width="3.44" height="3.44" fill="#eef2f7"/><rect x="336.28" y="12.28" width="3.44" height="3.44" fill="#eef2f7"/><rect x="324.28" y="16.28" width="3.44" height="3.44" fill="#eef2f7"/><rect x="324.28" y="20.28" width="3.44" height="3.44" fill="#eef2f7"/><rect x="324.28" y="24.28" width="3.44" height="3.44" fill="#eef2f7"/><rect x="328.28" y="24.28" width="3.44" height="3.44" fill="#eef2f7"/><rect x="332.28" y="24.28" width="3.44" height="3.44" fill="#eef2f7"/><rect x="336.28" y="24.28" width="3.44" height="3.44" fill="#eef2f7"/><rect x="340.28" y="24.28" width="3.44" height="3.44" fill="#eef2f7"/><rect x="348.28" y="0.28" width="3.44" height="3.44" fill="#eef2f7"/><rect x="352.28" y="0.28" width="3.44" height="3.44" fill="#eef2f7"/><rect x="356.28" y="0.28" width="3.44" height="3.44" fill="#eef2f7"/><rect x="360.28" y="0.28" width="3.44" height="3.44" fill="#eef2f7"/><rect x="348.28" y="4.28" width="3.44" height="3.44" fill="#eef2f7"/><rect x="364.28" y="4.28" width="3.44" height="3.44" fill="#eef2f7"/><rect x="348.28" y="8.28" width="3.44" height="3.44" fill="#eef2f7"/><rect x="364.28" y="8.28" width="3.44" height="3.44" fill="#eef2f7"/><rect x="348.28" y="12.28" width="3.44" height="3.44" fill="#eef2f7"/><rect x="352.28" y="12.28" width="3.44" height="3.44" fill="#eef2f7"/><rect x="356.28" y="12.28" width="3.44" height="3.44" fill="#eef2f7"/><rect x="360.28" y="12.28" width="3.44" height="3.44" fill="#eef2f7"/><rect x="348.28" y="16.28" width="3.44" height="3.44" fill="#eef2f7"/><rect x="356.28" y="16.28" width="3.44" height="3.44" fill="#eef2f7"/><rect x="348.28" y="20.28" width="3.44" height="3.44" fill="#eef2f7"/><rect x="360.28" y="20.28" width="3.44" height="3.44" fill="#eef2f7"/><rect x="348.28" y="24.28" width="3.44" height="3.44" fill="#eef2f7"/><rect x="364.28" y="24.28" width="3.44" height="3.44" fill="#eef2f7"/><rect x="372.28" y="0.28" width="3.44" height="3.44" fill="#eef2f7"/><rect x="388.28" y="0.28" width="3.44" height="3.44" fill="#eef2f7"/><rect x="372.28" y="4.28" width="3.44" height="3.44" fill="#eef2f7"/><rect x="388.28" y="4.28" width="3.44" height="3.44" fill="#eef2f7"/><rect x="376.28" y="8.28" width="3.44" height="3.44" fill="#eef2f7"/><rect x="384.28" y="8.28" width="3.44" height="3.44" fill="#eef2f7"/><rect x="380.28" y="12.28" width="3.44" height="3.44" fill="#eef2f7"/><rect x="380.28" y="16.28" width="3.44" height="3.44" fill="#eef2f7"/><rect x="380.28" y="20.28" width="3.44" height="3.44" fill="#eef2f7"/><rect x="380.28" y="24.28" width="3.44" height="3.44" fill="#eef2f7"/><rect x="408.28" y="0.28" width="3.44" height="3.44" fill="#eef2f7"/><rect x="412.28" y="0.28" width="3.44" height="3.44" fill="#eef2f7"/><rect x="416.28" y="0.28" width="3.44" height="3.44" fill="#eef2f7"/><rect x="420.28" y="0.28" width="3.44" height="3.44" fill="#eef2f7"/><rect x="408.28" y="4.28" width="3.44" height="3.44" fill="#eef2f7"/><rect x="424.28" y="4.28" width="3.44" height="3.44" fill="#eef2f7"/><rect x="408.28" y="8.28" width="3.44" height="3.44" fill="#eef2f7"/><rect x="424.28" y="8.28" width="3.44" height="3.44" fill="#eef2f7"/><rect x="408.28" y="12.28" width="3.44" height="3.44" fill="#eef2f7"/><rect x="424.28" y="12.28" width="3.44" height="3.44" fill="#eef2f7"/><rect x="408.28" y="16.28" width="3.44" height="3.44" fill="#eef2f7"/><rect x="424.28" y="16.28" width="3.44" height="3.44" fill="#eef2f7"/><rect x="408.28" y="20.28" width="3.44" height="3.44" fill="#eef2f7"/><rect x="424.28" y="20.28" width="3.44" height="3.44" fill="#eef2f7"/><rect x="408.28" y="24.28" width="3.44" height="3.44" fill="#eef2f7"/><rect x="412.28" y="24.28" width="3.44" height="3.44" fill="#eef2f7"/><rect x="416.28" y="24.28" width="3.44" height="3.44" fill="#eef2f7"/><rect x="420.28" y="24.28" width="3.44" height="3.44" fill="#eef2f7"/><rect x="436.28" y="0.28" width="3.44" height="3.44" fill="#eef2f7"/><rect x="440.28" y="0.28" width="3.44" height="3.44" fill="#eef2f7"/><rect x="444.28" y="0.28" width="3.44" height="3.44" fill="#eef2f7"/><rect x="432.28" y="4.28" width="3.44" height="3.44" fill="#eef2f7"/><rect x="448.28" y="4.28" width="3.44" height="3.44" fill="#eef2f7"/><rect x="432.28" y="8.28" width="3.44" height="3.44" fill="#eef2f7"/><rect x="448.28" y="8.28" width="3.44" height="3.44" fill="#eef2f7"/><rect x="432.28" y="12.28" width="3.44" height="3.44" fill="#eef2f7"/><rect x="436.28" y="12.28" width="3.44" height="3.44" fill="#eef2f7"/><rect x="440.28" y="12.28" width="3.44" height="3.44" fill="#eef2f7"/><rect x="444.28" y="12.28" width="3.44" height="3.44" fill="#eef2f7"/><rect x="448.28" y="12.28" width="3.44" height="3.44" fill="#eef2f7"/><rect x="432.28" y="16.28" width="3.44" height="3.44" fill="#eef2f7"/><rect x="448.28" y="16.28" width="3.44" height="3.44" fill="#eef2f7"/><rect x="432.28" y="20.28" width="3.44" height="3.44" fill="#eef2f7"/><rect x="448.28" y="20.28" width="3.44" height="3.44" fill="#eef2f7"/><rect x="432.28" y="24.28" width="3.44" height="3.44" fill="#eef2f7"/><rect x="448.28" y="24.28" width="3.44" height="3.44" fill="#eef2f7"/><rect x="456.28" y="0.28" width="3.44" height="3.44" fill="#eef2f7"/><rect x="472.28" y="0.28" width="3.44" height="3.44" fill="#eef2f7"/><rect x="456.28" y="4.28" width="3.44" height="3.44" fill="#eef2f7"/><rect x="472.28" y="4.28" width="3.44" height="3.44" fill="#eef2f7"/><rect x="460.28" y="8.28" width="3.44" height="3.44" fill="#eef2f7"/><rect x="468.28" y="8.28" width="3.44" height="3.44" fill="#eef2f7"/><rect x="464.28" y="12.28" width="3.44" height="3.44" fill="#eef2f7"/><rect x="464.28" y="16.28" width="3.44" height="3.44" fill="#eef2f7"/><rect x="464.28" y="20.28" width="3.44" height="3.44" fill="#eef2f7"/><rect x="464.28" y="24.28" width="3.44" height="3.44" fill="#eef2f7"/><rect x="480.28" y="20.28" width="3.44" height="3.44" fill="#eef2f7"/><rect x="484.28" y="20.28" width="3.44" height="3.44" fill="#eef2f7"/><rect x="480.28" y="24.28" width="3.44" height="3.44" fill="#eef2f7"/><rect x="484.28" y="24.28" width="3.44" height="3.44" fill="#eef2f7"/></g>
</svg>
